<svg clip-rule="evenodd" fill-rule="evenodd" image-rendering="optimizeQuality" shape-rendering="geometricPrecision" text-rendering="geometricPrecision" viewBox="0 0 2667 2667" xmlns="http://www.w3.org/2000/svg"><g id="Layer_x0020_1"><circle cx="1333" cy="1333" fill="#f44c71" r="1333"/><g fill="#fff"><path d="m1601 1854h-536c-24 0-44-20-44-45v-244c0-113 67-216 170-263 10-5 23-2 30 7 28 34 69 53 112 53 44 0 85-19 112-53 8-9 20-12 31-7 103 47 170 150 170 263v244c0 25-20 45-45 45zm-416-14c7 0 13-5 13-12v-268c0-7-6-13-13-13s-12 6-12 13v268c0 7 5 12 12 12zm296-293c-7 0-12 6-12 13v268c0 7 5 12 12 12s13-5 13-12v-268c0-7-6-13-13-13z"/><path d="m1333 1256c-108 0-196-88-196-197 0-108 88-196 196-196 109 0 197 88 197 196 0 109-88 197-197 197z"/><path d="m2148 1498h-361c-21 0-38-17-38-38v-165c0-79 47-152 119-185 11-5 23-2 31 7 17 21 42 33 69 33 26 0 52-12 69-33 7-9 20-12 30-7 73 33 120 106 120 185v165c0 21-18 38-39 38zm-280-13c7 0 12-6 12-13v-181c0-7-5-12-12-12s-13 5-13 12v181c0 7 6 13 13 13zm199-206c-6 0-12 5-12 12v181c0 7 6 13 12 13 7 0 13-6 13-13v-181c0-7-6-12-13-12z"/><path d="m1968 1095c-78 0-141-63-141-141s63-141 141-141c77 0 141 63 141 141s-64 141-141 141z"/><path d="m880 1498h-362c-21 0-38-17-38-38v-165c0-79 47-152 119-185 11-5 24-2 31 7 17 21 42 33 69 33s52-12 69-33c7-9 20-12 31-7 72 33 119 106 119 185v165c0 21-17 38-38 38zm-281-13c7 0 13-6 13-13v-181c0-7-6-12-13-12s-12 5-12 12v181c0 7 5 13 12 13zm200 0c7 0 12-6 12-13v-181c0-7-5-12-12-12s-13 5-13 12v181c0 7 6 13 13 13z"/><path d="m699 1095c-78 0-141-63-141-141s63-141 141-141 141 63 141 141-63 141-141 141z"/></g></g></svg>
